<?xml version="1.0" standalone="no"?>
<!DOCTYPE svg PUBLIC "-//W3C//DTD SVG 20010904//EN"
 "http://www.w3.org/TR/2001/REC-SVG-20010904/DTD/svg10.dtd">
<svg version="1.0" xmlns="http://www.w3.org/2000/svg"
 width="2026.000000pt" height="2026.000000pt" viewBox="0 0 2026.000000 2026.000000"
 preserveAspectRatio="xMidYMid meet">
<metadata>
Created by potrace 1.11, written by Peter Selinger 2001-2013
</metadata>
<g transform="translate(0.000000,2026.000000) scale(0.100000,-0.100000)"
fill="#000000" stroke="none">
<path d="M5860 19707 c0 -2 31 -71 69 -153 37 -82 81 -176 96 -209 144 -318
301 -661 367 -805 63 -137 284 -620 428 -935 10 -22 71 -155 135 -295 65 -140
148 -322 185 -405 37 -82 84 -186 105 -230 20 -44 93 -204 162 -355 69 -151
140 -306 158 -345 18 -38 112 -245 210 -460 98 -214 193 -424 212 -465 19 -41
53 -115 75 -165 22 -49 51 -114 64 -144 34 -73 34 -76 -1 -73 -38 4 -402 51
-435 57 -14 2 -110 16 -215 29 -104 14 -208 28 -230 31 -22 3 -86 11 -142 19
-116 14 -107 19 -117 -69 -3 -27 -12 -106 -21 -175 -8 -69 -17 -150 -20 -180
-3 -30 -10 -93 -15 -140 -6 -47 -12 -105 -15 -130 -12 -114 -56 -468 -61 -493
-6 -28 -17 -18 -282 251 -153 154 -590 596 -972 982 -382 386 -798 807 -925
935 -126 128 -563 569 -970 980 -715 722 -740 746 -747 718 -5 -15 -10 -37
-12 -48 -2 -11 -11 -56 -21 -100 -9 -44 -47 -231 -85 -415 -133 -648 -294
-1390 -400 -1845 -160 -683 -314 -1277 -411 -1584 -39 -121 -107 -303 -147
-392 -11 -24 -27 -61 -36 -82 -54 -132 -395 -822 -566 -1147 -154 -293 -338
-638 -440 -825 -90 -164 -151 -277 -180 -330 -48 -88 -228 -413 -258 -465 -14
-25 -38 -70 -55 -100 -52 -95 -293 -524 -314 -557 -11 -18 -23 -30 -26 -26 -4
3 -7 -6 -7 -21 0 -27 1 -27 48 -22 26 3 94 8 152 11 58 4 116 8 130 10 14 2
77 7 140 10 63 4 121 8 130 10 8 1 69 6 135 10 66 3 131 8 145 10 14 2 66 6
115 9 50 4 115 8 145 11 30 3 91 7 135 10 44 3 103 7 130 10 28 2 91 7 140 10
50 4 113 8 140 10 28 2 84 6 125 10 41 3 107 8 145 10 39 3 95 7 125 10 30 3
120 9 200 15 80 6 170 12 200 15 30 2 93 7 140 10 105 7 198 14 270 20 79 6
189 14 273 20 39 3 97 8 127 10 30 3 120 9 200 15 179 12 271 19 330 25 25 2
88 7 140 10 52 3 115 8 140 10 25 2 88 7 140 10 52 3 111 8 130 10 19 2 80 7
135 10 55 4 116 8 135 10 19 2 85 6 145 10 61 3 121 8 135 10 14 2 75 6 135
10 61 4 117 8 125 10 8 2 74 6 145 10 72 4 137 9 146 10 52 10 279 16 279 8 0
-5 -13 -37 -30 -71 -16 -34 -30 -64 -30 -67 0 -2 -11 -28 -24 -57 -52 -114
-155 -347 -184 -415 l-31 -73 117 -69 c64 -37 234 -135 377 -216 336 -191 585
-338 585 -346 0 -3 -57 -33 -127 -67 -174 -83 -399 -191 -637 -306 -109 -53
-200 -96 -201 -96 -1 0 -96 -45 -211 -101 -115 -56 -236 -114 -269 -129 -33
-15 -154 -73 -269 -129 -114 -56 -210 -101 -211 -101 -2 0 -97 -46 -211 -101
-115 -56 -240 -116 -279 -134 -38 -18 -137 -65 -220 -105 -153 -74 -283 -136
-480 -230 -60 -29 -166 -79 -235 -112 -69 -34 -174 -84 -235 -113 -60 -29
-173 -83 -250 -120 -77 -37 -185 -89 -240 -115 -222 -106 -337 -161 -470 -225
-198 -95 -392 -189 -520 -250 -460 -220 -469 -225 -449 -241 11 -8 107 -67
214 -131 488 -291 1171 -703 1355 -816 1190 -738 1764 -1119 2085 -1387 229
-190 721 -683 1265 -1266 66 -71 150 -160 186 -199 36 -38 87 -94 115 -124 27
-29 54 -59 59 -65 6 -6 82 -90 170 -186 163 -180 242 -268 406 -450 51 -58
110 -123 130 -145 20 -22 132 -148 249 -280 117 -132 237 -266 266 -299 l53
-58 11 43 c6 24 18 67 26 94 9 28 18 61 20 75 5 24 77 300 184 700 27 102 99
374 160 605 61 231 131 494 155 585 24 91 82 310 129 488 48 177 125 467 172
645 48 177 89 331 91 342 13 50 478 1794 518 1940 13 50 58 214 99 365 102
374 105 382 119 373 7 -3 57 -41 112 -83 55 -42 226 -172 380 -289 154 -118
302 -231 330 -252 l50 -38 30 23 c16 13 73 55 125 94 52 39 127 95 165 124
276 212 566 428 574 428 5 0 11 -10 14 -22 3 -13 28 -106 57 -208 122 -437
375 -1383 981 -3665 38 -143 81 -305 95 -360 15 -55 44 -163 64 -240 21 -77
56 -210 79 -295 22 -85 117 -443 211 -795 94 -352 172 -648 173 -657 1 -14 10
-18 42 -17 30 2 33 3 13 6 -34 5 -34 6 -4 41 65 74 203 232 235 267 131 145
247 276 279 313 11 12 53 59 94 105 41 45 121 134 178 197 100 111 240 266
289 319 13 14 57 63 99 109 41 46 89 98 106 116 41 44 225 243 260 281 51 56
270 288 376 400 185 194 659 667 762 760 55 50 109 99 121 111 190 181 951
695 1932 1304 344 214 1150 701 1504 909 123 73 239 143 259 156 l35 24 -134
64 c-74 36 -192 93 -264 127 -71 34 -170 82 -220 105 -49 24 -162 78 -250 120
-150 72 -245 118 -475 228 -52 25 -189 90 -304 146 -115 56 -210 101 -212 101
-1 0 -100 47 -220 105 -119 58 -218 105 -219 105 -1 0 -96 45 -211 101 -115
56 -236 114 -269 129 -33 15 -123 58 -200 95 -203 98 -374 180 -500 240 -60
29 -164 78 -230 110 -296 142 -376 180 -460 220 -49 23 -155 74 -235 112 -80
39 -246 119 -370 178 -124 59 -313 150 -420 202 -107 52 -230 111 -272 130
-43 20 -78 39 -78 42 0 3 10 13 23 21 25 16 341 201 402 235 22 13 153 87 290
165 138 78 273 155 301 172 43 24 51 32 47 51 -3 12 -68 168 -144 346 -76 178
-136 328 -133 333 3 4 17 6 32 4 15 -3 65 -7 112 -11 154 -10 224 -16 280 -20
30 -3 91 -7 135 -10 44 -3 107 -8 140 -10 33 -2 96 -7 140 -10 44 -3 100 -8
125 -10 25 -2 88 -7 140 -10 52 -3 111 -8 130 -10 19 -2 82 -7 140 -10 58 -3
121 -7 140 -10 19 -2 78 -7 130 -10 52 -3 115 -8 140 -10 25 -2 86 -7 135 -10
50 -3 110 -8 135 -10 25 -2 86 -7 135 -10 50 -3 110 -8 135 -10 25 -2 86 -7
135 -10 138 -9 214 -14 280 -20 53 -5 129 -10 420 -31 44 -3 100 -7 125 -10
25 -2 81 -7 125 -9 44 -3 105 -7 135 -10 30 -2 96 -7 145 -10 50 -3 110 -8
135 -10 25 -2 86 -7 135 -10 50 -3 110 -8 135 -10 25 -3 81 -7 125 -10 44 -3
109 -8 145 -10 36 -3 99 -7 140 -10 41 -3 100 -7 130 -10 30 -2 88 -7 128 -10
141 -10 218 -16 272 -20 30 -2 91 -7 135 -10 44 -3 107 -8 140 -10 33 -3 92
-7 130 -10 166 -13 203 -16 254 -21 l54 -6 -21 34 c-28 46 -282 499 -282 503
0 2 -20 38 -45 79 -25 42 -45 78 -45 81 0 2 -15 30 -34 62 -119 205 -674 1229
-868 1603 -234 449 -494 982 -600 1230 -125 289 -248 699 -408 1355 -33 138
-67 277 -75 310 -9 33 -17 69 -19 80 -2 11 -25 108 -50 215 -51 219 -123 539
-130 573 -2 12 -20 94 -39 182 -20 88 -52 237 -72 330 -19 94 -40 189 -45 212
-12 52 -150 713 -196 943 -20 96 -39 178 -43 183 -6 6 -710 -699 -1517 -1520
-99 -100 -522 -527 -940 -950 -419 -422 -907 -915 -1085 -1095 -178 -181 -327
-328 -330 -328 -9 0 -15 35 -39 230 -11 91 -23 181 -25 200 -3 19 -21 163 -40
320 -20 157 -38 294 -40 306 -1 11 -6 50 -10 87 -8 76 -6 75 -120 58 -33 -5
-82 -12 -110 -16 -27 -3 -113 -14 -190 -25 -77 -10 -158 -21 -180 -24 -22 -3
-89 -12 -150 -20 -60 -9 -180 -25 -265 -36 -85 -11 -170 -23 -187 -25 -18 -3
-33 -3 -33 -2 0 2 14 31 30 65 17 34 30 64 30 66 0 2 21 48 46 103 25 54 250
537 499 1073 249 536 469 1009 488 1050 19 41 97 208 172 370 76 162 155 333
177 380 22 47 66 141 98 210 32 69 77 166 100 215 23 50 55 117 70 150 15 33
60 130 100 215 40 85 85 182 100 215 16 33 74 159 130 280 56 121 145 312 197
425 52 113 99 213 105 224 9 17 6 18 -39 13 -26 -2 -115 -16 -198 -30 -82 -14
-168 -28 -190 -31 -22 -4 -51 -8 -65 -11 -14 -2 -41 -6 -60 -9 -19 -3 -188
-28 -375 -56 -187 -28 -356 -53 -375 -56 -19 -3 -96 -14 -170 -24 -74 -11
-153 -23 -175 -26 -22 -3 -67 -9 -100 -14 -33 -5 -85 -11 -115 -15 -30 -3 -66
-8 -80 -10 -57 -10 -246 -36 -365 -51 -27 -3 -61 -7 -75 -9 -138 -20 -215 -30
-470 -60 -303 -36 -711 -80 -835 -90 -38 -3 -92 -8 -120 -10 -196 -18 -650
-24 -825 -11 -243 19 -552 47 -650 61 -19 3 -60 7 -90 10 -48 5 -120 14 -250
30 -19 3 -55 7 -80 10 -102 12 -377 46 -400 50 -14 2 -110 16 -215 30 -104 14
-217 30 -250 35 -33 5 -190 28 -350 50 -159 23 -301 43 -315 45 -14 2 -176 27
-360 54 -331 50 -777 119 -789 123 -3 1 26 4 64 8 60 6 50 7 -62 8 -73 1 -133
0 -133 -1z"/>
<path d="M1 9594 c0 -11 3 -14 6 -6 3 7 2 16 -1 19 -3 4 -6 -2 -5 -13z"/>
<path d="M10055 2739 c-96 -13 -172 -60 -235 -143 -127 -168 -101 -419 57
-544 81 -64 119 -77 236 -80 102 -4 110 -2 171 26 88 41 148 100 191 185 33
66 35 75 35 172 0 99 -1 106 -37 175 -85 165 -226 235 -418 209z"/>
<path d="M12788 543 c7 -3 16 -2 19 1 4 3 -2 6 -13 5 -11 0 -14 -3 -6 -6z"/>
</g>
</svg>
